<?xml version="1.0" encoding="UTF-8" standalone="no"?>
<!-- Created with Inkscape (http://www.inkscape.org/) -->

<svg
   width="1024.0px"
   height="1024.0px"
   viewBox="0 0 1024.0 1024.0"
   version="1.1"
   id="SVGRoot"
   sodipodi:docname="launcher.svg"
   xml:space="preserve"
   inkscape:version="1.2.2 (b0a8486541, 2022-12-01)"
   xmlns:inkscape="http://www.inkscape.org/namespaces/inkscape"
   xmlns:sodipodi="http://sodipodi.sourceforge.net/DTD/sodipodi-0.dtd"
   xmlns="http://www.w3.org/2000/svg"
   xmlns:svg="http://www.w3.org/2000/svg"><sodipodi:namedview
     id="namedview3511"
     pagecolor="#ffffff"
     bordercolor="#000000"
     borderopacity="0.25"
     inkscape:showpageshadow="2"
     inkscape:pageopacity="0"
     inkscape:pagecheckerboard="0"
     inkscape:deskcolor="#adadad"
     inkscape:document-units="px"
     showgrid="true"
     inkscape:zoom="0.77593294"
     inkscape:cx="295.77298"
     inkscape:cy="497.46567"
     inkscape:window-width="1920"
     inkscape:window-height="1019"
     inkscape:window-x="0"
     inkscape:window-y="0"
     inkscape:window-maximized="1"
     inkscape:current-layer="layer1"><inkscape:grid
       type="xygrid"
       id="grid3997" /></sodipodi:namedview><defs
     id="defs3506" /><g
     inkscape:label="Layer 1"
     inkscape:groupmode="layer"
     id="layer1"><path
       style="fill:#ff0d29;fill-opacity:1;stroke:#700303;stroke-width:31.2029;stroke-dasharray:none;stroke-opacity:1"
       d="M 448.21668,1005.0777 C 410.92894,1002.2113 353.8199,988.90818 285.03427,967.06532 237.55856,951.98952 232.56378,950.00081 194.74602,931.1167 157.32086,912.42861 141.90482,902.06428 112.00132,875.48672 57.473588,827.02374 27.407465,771.57104 21.360924,708.31338 c -1.091431,-11.41833 -2.577388,-24.1861 -3.302127,-28.37282 -2.219796,-12.82349 -3.316823,-88.20811 -1.568374,-107.77427 0.859181,-9.61474 2.223927,-25.56666 3.03277,-35.44874 2.233809,-27.2917 9.577551,-60.54599 18.91256,-85.64077 2.871523,-7.71935 6.3163,-17.43743 7.655063,-21.59575 2.306151,-7.1631 18.233396,-32.38977 31.927558,-50.56911 14.433017,-19.16017 36.172846,-39.59529 53.423756,-50.21754 16.60525,-10.22469 40.51132,-16.82411 93.50824,-25.81353 49.96411,-8.47499 54.12791,-9.26638 78.43424,-14.90759 25.55271,-5.93049 45.40654,-12.4005 60.86044,-19.83335 24.26173,-11.66913 43.63952,-28.90988 51.57205,-45.88453 4.00227,-8.56437 4.40594,-10.63292 4.40594,-22.5766 0,-11.99501 -0.35935,-13.81611 -4.09662,-20.7606 -4.11189,-7.64056 -15.90204,-20.25049 -45.93924,-49.1334 -8.70806,-8.37345 -17.89282,-18.33854 -20.41056,-22.14464 C 337.2056,88.636216 322.87097,40.51421 329.7811,40.51421 c 5.27724,0 51.86984,39.8113 62.62433,53.509733 9.5486,12.162437 16.6192,16.195217 27.05355,15.430247 9.79762,-0.71831 16.99998,-5.54895 18.33111,-12.294759 0.47729,-2.418742 0.89458,-14.440654 0.92731,-26.715357 0.0686,-25.741006 1.73289,-49.236203 3.74578,-52.881751 1.18911,-2.153631 3.01527,-0.0066 12.51402,14.713272 17.64126,27.337943 32.11376,57.532764 36.92106,77.030615 1.40424,5.69546 3.67212,11.63113 5.03974,13.19037 6.30805,7.19199 23.35279,10.35552 31.83663,5.90892 4.08795,-2.14259 4.63197,-3.13991 21.51895,-39.4499 11.85466,-25.489624 38.99125,-73.354105 41.58785,-73.354105 3.25596,0 7.77779,29.596126 8.03547,52.593507 0.081,7.231609 0.57172,14.692897 1.09044,16.580648 1.3791,5.018919 11.33189,12.146143 18.47821,13.232318 10.53914,1.601851 14.82689,-0.937748 34.93539,-20.692028 16.61663,-16.323904 35.35207,-31.068738 47.4454,-37.339605 l 4.438,-2.301288 v 4.033815 c 0,6.303348 -10.43357,35.425134 -18.16691,50.70684 -9.48534,18.743718 -20.36177,34.830548 -33.96702,50.239048 -30.19632,34.19856 -33.29603,39.86671 -32.21906,58.91614 0.91541,16.19179 5.24082,24.72055 20.09804,39.62908 7.33082,7.35612 15.86936,14.22206 22.78705,18.32334 23.88051,14.15794 64.33985,27.30889 94.80814,30.81652 24.62309,2.8347 52.77012,8.05867 74.33806,13.79683 38.53027,10.25097 58.87355,22.29595 88.22779,52.23848 31.51669,32.14833 48.88737,60.80336 62.72249,103.4684 9.93519,30.6383 14.54352,54.36267 16.27178,83.76911 0.8052,13.70199 2.0377,29.27244 2.7388,34.601 1.6515,12.55289 1.7174,80.14365 0.1028,105.48989 -1.9837,31.14035 -13.64145,74.793 -28.19504,105.57616 -14.22044,30.07859 -34.13314,56.06482 -63.38744,82.72119 -8.61645,7.85125 -19.66049,16.89102 -24.54231,20.08835 -4.88181,3.19736 -15.32822,10.18903 -23.21424,15.53706 -18.82865,12.76901 -22.4452,14.858 -49.88716,28.81586 -20.03664,10.19129 -35.5072,16.39478 -69.59786,27.90784 -9.3463,3.15635 -72.89766,21.12146 -90.12586,25.47737 -36.55547,9.24234 -59.35758,13.33753 -85.34644,15.32803 -21.10193,1.616 -100.15642,1.5655 -121.53335,-0.078 z"
       id="path2353" /></g></svg>
