<?xml version="1.0" encoding="UTF-8" standalone="no"?>
<!-- Created with Inkscape (http://www.inkscape.org/) -->

<svg
   width="1024.0px"
   height="1024.0px"
   viewBox="0 0 1024.0 1024.0"
   version="1.1"
   id="SVGRoot"
   sodipodi:docname="pomelogo.svg"
   xml:space="preserve"
   inkscape:version="1.2.1 (9c6d41e410, 2022-07-14)"
   xmlns:inkscape="http://www.inkscape.org/namespaces/inkscape"
   xmlns:sodipodi="http://sodipodi.sourceforge.net/DTD/sodipodi-0.dtd"
   xmlns="http://www.w3.org/2000/svg"
   xmlns:svg="http://www.w3.org/2000/svg"><sodipodi:namedview
     id="namedview3511"
     pagecolor="#ffffff"
     bordercolor="#000000"
     borderopacity="0.25"
     inkscape:showpageshadow="2"
     inkscape:pageopacity="0.0"
     inkscape:pagecheckerboard="0"
     inkscape:deskcolor="#d1d1d1"
     inkscape:document-units="px"
     showgrid="true"
     inkscape:zoom="0.77593294"
     inkscape:cx="294.48421"
     inkscape:cy="187.5162"
     inkscape:window-width="1444"
     inkscape:window-height="1080"
     inkscape:window-x="0"
     inkscape:window-y="0"
     inkscape:window-maximized="0"
     inkscape:current-layer="layer1"><inkscape:grid
       type="xygrid"
       id="grid3997" /></sodipodi:namedview><defs
     id="defs3506" /><g
     inkscape:label="Layer 1"
     inkscape:groupmode="layer"
     id="layer1"><path
       d="m 426.74767,7.1456865 c -7.98286,5.8486635 -18.09222,30.0893945 -23.14043,54.9761065 -1.85948,9.31024 -3.73182,17.536326 -4.25302,17.963569 -0.25743,0.450397 -8.77684,-4.548963 -18.61729,-11.041045 -28.72726,-19.04835 -54.26381,-32.038937 -62.51559,-32.038937 -18.61798,0 -25.53666,17.09879 -22.61547,54.976097 2.12968,25.751483 9.84036,49.783093 24.20403,73.804423 9.31538,15.58677 16.75971,23.81286 37.23519,41.55764 20.745,18.18236 25.53655,23.37471 25.53655,28.78581 0,19.26712 -27.66306,37.23072 -71.02291,46.32215 -8.77754,1.94957 -39.10625,7.36074 -67.8335,12.12517 -85.3872,14.06447 -112.52529,24.03165 -143.11073,52.16056 C 58.318236,385.69872 31.718094,428.76767 15.752976,485.04671 -2.5953125,548.03982 -5.5299605,664.48604 9.1026307,733.52592 27.451601,820.96823 82.522274,888.71489 177.74991,940.66694 c 27.13869,14.72141 91.7686,41.12008 124.22451,50.86784 70.51072,20.78942 146.05747,32.47652 208.8293,32.47652 126.61985,-0.1931 279.31496,-44.81012 374.79864,-109.52311 57.19848,-38.74267 98.9562,-91.98802 117.04844,-149.13173 8.2519,-26.18964 12.5061,-47.39604 15.9651,-82.68749 3.9827,-39.38932 1.8595,-116.66562 -4.253,-154.32351 -10.635,-64.93231 -35.37701,-119.04235 -73.68857,-161.257 -41.50237,-45.23795 -63.04135,-55.41357 -163.06113,-75.75458 -65.16787,-13.4178 -81.65796,-17.96351 -97.89268,-28.13921 -14.63261,-9.09142 -24.47297,-24.02126 -20.74441,-31.60074 1.33192,-2.81177 9.84045,-12.99059 18.88691,-22.5093 35.10798,-37.23068 60.11887,-92.20613 65.43677,-143.293419 1.60205,-16.879414 1.60205,-17.744802 -5.05087,-23.155288 -4.25292,-3.461581 -9.84036,-5.629899 -14.63259,-5.629899 -10.63504,0 -46.55056,14.721373 -67.8335,27.701672 -9.84036,6.273301 -18.36115,11.259784 -18.88622,11.259784 -0.51484,0 -2.92109,-7.141277 -5.58485,-15.794591 C 628.9183,51.727397 623.3289,37.016965 618.80636,27.925483 607.36378,3.6853954 593.26912,-3.6752918 578.36759,7.1463304 571.71726,12.338711 544.32313,52.384323 527.56341,82.035545 L 517.97903,98.706483 506.5494,79.220599 C 490.32824,51.727397 461.06304,12.119943 452.81126,6.9275706 443.7648,1.078916 434.98796,1.078916 426.74895,7.1205536 Z m 38.56771,82.4583785 c 14.36366,22.947455 28.99627,56.059605 28.99627,65.151095 0,13.19905 24.99862,22.08206 35.37759,12.55306 2.39355,-2.16831 7.98226,-12.77183 12.23648,-23.5941 8.25186,-20.55973 42.29635,-80.737869 45.48636,-80.737869 3.46161,0 7.98286,26.627814 7.98286,47.406319 0,18.18296 0.51485,20.34096 6.65043,25.10548 8.50783,7.14191 20.7444,7.14191 28.72658,0.4504 3.19139,-2.81816 10.90464,-10.60286 17.0293,-17.31692 9.57153,-10.38409 38.2981,-31.173538 46.28096,-33.550325 3.98281,-1.293271 2.66376,6.922524 -4.52322,26.835635 -9.57144,27.05567 -26.86908,55.41361 -46.28096,75.53583 -23.14112,24.2401 -27.66366,32.0383 -27.66366,47.61476 0,31.382 33.78833,60.16786 88.05223,75.54554 12.76155,3.68034 11.1214,3.24923 23.95956,6.58787 10.80554,1.91739 11.42774,1.76946 19.43694,2.70882 8.97052,0.6753 20.90075,1.80154 51.75452,8.2885 46.81957,9.95688 66.03906,21.15937 87.85985,40.4162 9.57151,8.65336 23.67837,22.94684 30.59771,31.60081 l 13.03115,16.23276 4.7677,8.5999 c 4.72265,9.2234 4.89641,8.35674 9.79668,17.24934 3.19775,5.80366 3.04972,5.60415 4.33659,8.56645 v 0 l 6.3827,16.45215 c 5.85507,15.5868 12.23649,39.1803 16.22118,60.60543 1.60214,8.22602 1.85304,8.38881 1.71789,15.65303 0.38614,16.74039 0.8815,17.28666 1.48637,31.90637 0.38614,2.61871 3.44222,9.36627 3.44222,50.27723 0,40.91106 -0.51485,46.85494 -1.04876,50.86211 -0.0343,11.79903 -0.9136,11.42069 -1.33827,25.65111 l -1.73085,8.74209 -6.26685,24.48721 c -12.23647,51.95203 -36.97845,91.7686 -80.06938,129.21805 l -16.22177,13.85593 -6.11248,3.80905 c -9.83788,6.13815 -8.49635,5.28889 -20.51925,12.99957 -7.68434,5.48188 -7.68434,4.83206 -7.68434,5.48188 0,1.94957 -45.75588,25.97092 -63.04133,33.12315 -11.17289,4.54898 -12.93522,4.97355 -22.52537,7.36067 -9.05933,3.53239 -11.11375,3.92488 -18.46343,7.33817 l -10.35323,2.38712 c -7.16512,1.53769 -80.33899,25.54359 -134.33388,33.33148 -36.70952,5.19246 -120.23913,5.19246 -156.94865,0 -53.99489,-7.78789 -128.77923,-31.05636 -134.33387,-33.33148 -1.94958,-0.79802 0,0 -8.16435,-3.08843 -8.46734,-1.94958 -8.11792,-1.9367 -19.6808,-5.78435 -12.14191,-3.52588 -12.32332,-3.67389 -23.49629,-8.21901 -17.28477,-7.14124 -62.05309,-30.37694 -64.13068,-31.54607 -0.77829,-0.4505 -0.78515,-0.51485 -4.42026,-2.33563 -2.67663,-1.69858 -2.66375,-1.67284 -21.10728,-15.6852 l -7.69977,-5.84863 -16.24692,-13.84565 C 92.080831,829.42981 66.019306,789.16482 54.307804,743.71896 50.57599,729.65449 50.061223,729.6442 49.533678,724.35788 48.291843,710.455 48.343337,710.25488 47.789953,701.6337 c 0.04292,-4.36877 0.0057,-4.06638 -0.386139,-7.04154 -1.164502,-3.22348 -3.731814,-11.68764 -4.793442,-52.16047 -1.061613,-46.9688 -0.257426,-48.26596 0.12877,-51.38785 1.544217,-11.80341 1.930271,-11.60528 1.930271,-18.96593 0,-6.49528 0.514853,-6.68321 1.048751,-15.7953 0.193069,-5.44328 1.389749,-25.54359 8.564554,-53.89124 6.382614,-26.18964 8.42872,-29.0233 10.198782,-32.95393 1.383325,-3.07555 1.31253,-2.86318 3.377938,-8.50793 2.567227,-8.91705 2.747334,-9.03934 6.073793,-18.47244 2.7989,-5.54625 4.285198,-5.65564 14.127531,-21.02234 21.282938,-33.55099 52.406318,-62.98282 77.673938,-73.15843 17.82262,-7.36076 71.05896,-17.00486 87.78263,-19.26712 13.8985,-2.48365 14.28061,-2.41286 20.35774,-2.88249 15.27341,-3.35872 17.5537,-3.27506 22.98924,-4.49104 5.51407,-1.22896 7.72681,-1.93027 22.09049,-4.96077 65.9753,-14.5026 106.66943,-45.23804 106.66943,-80.73792 0,-16.87935 -8.50783,-29.22395 -39.10555,-55.62205 -26.33122,-22.94747 -34.85194,-35.49988 -43.88552,-64.50446 -5.85514,-18.182963 -6.91866,-29.005228 -2.92109,-29.005228 5.58485,0 51.86769,38.523928 59.32488,49.345558 11.44258,16.23341 23.93512,20.13251 36.97913,11.46889 6.1125,-3.89909 6.1125,-4.98647 6.3827,-40.47348 0.25743,-36.36527 2.12968,-47.614778 7.18828,-41.557642 1.33183,1.512024 8.25178,12.334289 15.69611,24.021316 z"
       id="path20883"
       sodipodi:nodetypes="ccccscccsccccccccccccccccccsscscccccccccsccssccccccsccccccccsccccccsccccccscscccsccscccscscccccccssccsccccccscsccsccccc"
       style="fill:#aa0000;fill-opacity:1;stroke-width:0.115581" /></g></svg>
